<svg width="228" height="228" viewBox="0 0 228 228" fill="none" xmlns="http://www.w3.org/2000/svg">
<path d="M168.009 76.5121C149.226 56.48 120.744 44.6879 93.8496 54.086C71.4782 61.8928 52.9783 81.2317 42.9189 102.782C35.8418 117.949 31.9202 137.598 36.2294 154.128C39.9686 168.465 51.9158 174.839 65.5776 175.861C87.1829 177.48 108.866 175.136 130.485 175.551C145.829 175.843 169.245 181.52 182.925 172.409C195.852 163.8 195.045 145.049 193.627 131.291C191.52 110.767 181.817 91.2455 168.009 76.5121Z" fill="#7400B8"/>
<path opacity="0.7" d="M168.009 76.5121C149.226 56.48 120.744 44.6879 93.8496 54.086C71.4782 61.8928 52.9783 81.2317 42.9189 102.782C35.8418 117.949 31.9202 137.598 36.2294 154.128C39.9686 168.465 51.9158 174.839 65.5776 175.861C87.1829 177.48 108.866 175.136 130.485 175.551C145.829 175.843 169.245 181.52 182.925 172.409C195.852 163.8 195.045 145.049 193.627 131.291C191.52 110.767 181.817 91.2455 168.009 76.5121Z" fill="white"/>
<path d="M145.587 61.5191C146.211 58.1963 145.84 54.7634 144.521 51.6506C143.201 48.5379 140.992 45.884 138.17 44.0217C135.349 42.1595 132.04 41.1717 128.659 41.1824C125.279 41.193 121.976 42.2016 119.166 44.0816C117.126 39.1208 113.426 35.0219 108.7 32.4847C103.974 29.9475 98.5134 29.1293 93.251 30.1696C87.9886 31.2099 83.2504 34.0443 79.845 38.189C76.4397 42.3338 74.5783 47.5319 74.5787 52.8961C74.5787 53.1834 74.5787 53.4661 74.5787 53.7488C71.2518 54.697 68.352 56.7601 66.3657 59.5923C64.3793 62.4245 63.4271 65.8536 63.6687 69.3045C63.9103 72.7554 65.331 76.0183 67.6927 78.5461C70.0543 81.0739 73.2133 82.7129 76.6398 83.1882V83.3478H144.848C147.619 83.2517 150.251 82.1072 152.211 80.1457C154.171 78.1842 155.313 75.5518 155.407 72.7806C155.5 70.0093 154.539 67.3058 152.716 65.2162C150.893 63.1267 148.345 61.8069 145.587 61.5236V61.5191Z" fill="#263238" stroke="#263238" stroke-linecap="round" stroke-linejoin="round"/>
<path d="M145.587 59.4671C146.211 56.1443 145.84 52.7114 144.521 49.5986C143.201 46.4859 140.992 43.832 138.17 41.9697C135.349 40.1075 132.04 39.1197 128.659 39.1304C125.279 39.141 121.976 40.1496 119.166 42.0296C117.126 37.0691 113.427 32.9705 108.701 30.4333C103.975 27.896 98.5154 27.0774 93.2532 28.1171C87.9911 29.1569 83.2529 31.9905 79.8472 36.1344C76.4415 40.2783 74.5794 45.4757 74.5787 50.8395C74.5787 51.1268 74.5787 51.4095 74.5787 51.6923C71.2518 52.6404 68.352 54.7035 66.3657 57.5358C64.3793 60.368 63.4271 63.797 63.6687 67.2479C63.9103 70.6988 65.331 73.9617 67.6927 76.4895C70.0543 79.0173 73.2133 80.6563 76.6398 81.1316V81.2912H144.848C147.619 81.1951 150.251 80.0507 152.211 78.0891C154.171 76.1276 155.313 73.4953 155.407 70.724C155.5 67.9528 154.539 65.2492 152.716 63.1597C150.893 61.0701 148.345 59.7503 145.587 59.4671Z" fill="#7400B8" stroke="#263238" stroke-linecap="round" stroke-linejoin="round"/>
<path d="M121.935 120.594L119.066 122.099C119.066 122.099 115.925 123.467 113.873 124.556C111.821 125.646 101.711 133.439 101.711 133.439L99.6636 133.576L98.4324 134.397C98.4324 134.397 96.3804 134.807 96.3804 135.218C96.3804 135.628 96.7908 135.76 97.2012 135.76C97.8186 135.605 98.4156 135.377 98.9796 135.081C98.9796 135.081 97.5888 137.115 98.136 137.115C98.9283 137.197 99.7153 137.323 100.493 137.493C101.399 137.325 102.312 137.203 103.229 137.128C103.913 137.128 105.551 133.439 105.551 133.439C105.551 133.439 117.302 128.793 118.806 127.698C120.311 126.604 124.68 123.872 124.68 123.872L121.935 120.594Z" fill="white" stroke="#263238" stroke-linecap="round" stroke-linejoin="round"/>
<path d="M132.965 109.367L120.156 121.004L123.85 125.377L130.954 122.646L133.412 109.527L132.965 109.367Z" fill="#7400B8" stroke="#263238" stroke-linecap="round" stroke-linejoin="round"/>
<path d="M121.866 119.454L120.156 121.004L123.85 125.377L126.052 124.529L121.866 119.454Z" fill="#263238" stroke="#263238" stroke-linecap="round" stroke-linejoin="round"/>
<path d="M155.323 182.186C155.323 182.186 159.39 186.417 159.805 188.492C160.22 190.567 159.226 192.396 157.566 191.894C155.907 191.392 154.411 186.253 153.996 185.341C153.581 184.429 153.084 183.431 153.084 183.431C153.084 183.431 154.329 181.771 155.323 182.186Z" fill="#7400B8" stroke="#263238" stroke-linecap="round" stroke-linejoin="round"/>
<path d="M159.842 188.716C160.143 190.695 159.162 192.364 157.562 191.908C156.983 191.739 156.426 190.996 155.929 190.084C157.014 188.328 158.761 188.424 159.842 188.716Z" fill="white" stroke="#263238" stroke-linecap="round" stroke-linejoin="round"/>
<path d="M155.364 188.884C156.276 190.129 157.434 191.465 158.31 191.233C159.185 191 159.646 189.354 159.805 188.497C160.216 190.567 159.222 192.382 157.566 191.885C156.755 191.652 155.988 190.307 155.364 188.884Z" fill="white" stroke="#263238" stroke-linecap="round" stroke-linejoin="round"/>
<path d="M154.493 184.511C154.493 184.511 156.317 183.513 156.403 183.846C156.49 184.178 154.661 185.09 154.411 185.09C154.16 185.09 153.996 185.008 154.493 184.511Z" fill="white" stroke="#263238" stroke-width="0.5" stroke-linecap="round" stroke-linejoin="round"/>
<path d="M154.908 185.09C154.908 185.09 156.732 184.096 156.818 184.429C156.905 184.762 155.076 185.674 154.826 185.674C154.575 185.674 154.411 185.592 154.908 185.09Z" fill="white" stroke="#263238" stroke-width="0.5" stroke-linecap="round" stroke-linejoin="round"/>
<path d="M155.323 185.674C155.323 185.674 157.147 184.675 157.233 185.008C157.32 185.341 155.492 186.253 155.241 186.253C154.99 186.253 154.826 186.171 155.323 185.674Z" fill="white" stroke="#263238" stroke-width="0.5" stroke-linecap="round" stroke-linejoin="round"/>
<path d="M155.738 186.253C155.738 186.253 157.562 185.259 157.648 185.587C157.735 185.916 155.907 186.832 155.656 186.832C155.405 186.832 155.241 186.75 155.738 186.253Z" fill="white" stroke="#263238" stroke-width="0.5" stroke-linecap="round" stroke-linejoin="round"/>
<path d="M122.55 185.993C122.55 185.993 124.137 188.205 124.278 189.459C124.419 190.713 123.366 190.745 122.025 190.603C120.685 190.462 119.084 191.451 117.196 191.401C115.309 191.351 113.124 190.526 114.173 189.627C115.222 188.729 117.958 187.99 118.551 187.475C118.905 187.165 119.237 186.832 119.545 186.477L122.55 185.993Z" fill="#7400B8" stroke="#263238" stroke-linecap="round" stroke-linejoin="round"/>
<path d="M114.173 189.628C114.542 189.338 114.947 189.097 115.377 188.912C115.859 189.17 116.284 189.524 116.624 189.952C116.964 190.38 117.214 190.873 117.356 191.401H117.192C115.304 191.351 113.125 190.526 114.173 189.628Z" fill="white" stroke="#263238" stroke-linecap="round" stroke-linejoin="round"/>
<path d="M118.724 187.183C118.724 187.183 120.671 188.2 120.179 188.401C119.686 188.602 118.209 187.462 118.724 187.183Z" fill="white" stroke="#263238" stroke-width="0.5" stroke-linecap="round" stroke-linejoin="round"/>
<path d="M117.967 187.389C117.967 187.389 119.915 188.406 119.422 188.606C118.93 188.807 117.452 187.667 117.967 187.389Z" fill="white" stroke="#263238" stroke-width="0.5" stroke-linecap="round" stroke-linejoin="round"/>
<path d="M117.529 187.689C117.529 187.689 119.477 188.706 118.984 188.907C118.492 189.108 117.014 187.968 117.529 187.689Z" fill="white" stroke="#263238" stroke-width="0.5" stroke-linecap="round" stroke-linejoin="round"/>
<path d="M116.736 188.054C116.736 188.054 118.683 189.071 118.191 189.272C117.698 189.473 116.212 188.328 116.736 188.054Z" fill="white" stroke="#263238" stroke-width="0.5" stroke-linecap="round" stroke-linejoin="round"/>
<path d="M113.954 189.906C115.319 190.709 116.943 190.95 118.482 190.576C119.912 190.262 121.363 190.061 122.824 189.974C123.321 189.96 123.813 189.877 124.287 189.728C124.251 190.717 123.266 190.736 122.007 190.603C120.667 190.457 119.066 191.451 117.178 191.401C115.5 191.356 113.585 190.69 113.954 189.906Z" fill="white" stroke="#263238" stroke-linecap="round" stroke-linejoin="round"/>
<path d="M142.491 137.256C142.491 137.256 141.533 150.589 142.112 153.822C142.692 157.055 144.119 166.682 144.119 166.682C144.119 166.682 146.28 168.259 148.437 171.743C150.594 175.227 155.323 182.199 155.323 182.199C155.323 182.199 155.491 183.444 153.996 183.859C153.996 183.859 153.248 184.192 152.833 183.859C152.418 183.526 138.241 170.416 136.567 167.68C134.894 164.944 132.669 148.109 132.669 148.109L130.512 147.694L121.392 165.122L122.979 186.308C122.979 186.308 123.102 187.037 122.067 187.334C121.032 187.63 120.197 187.735 119.577 187.202C118.957 186.668 114.155 163.467 114.561 162.637C114.967 161.807 124.169 138.998 124.169 138.998L124.912 137.092C124.912 137.092 133.626 138.086 137.525 137.338C141.424 136.59 142.163 135.997 142.491 137.256Z" fill="#263238" stroke="#263238" stroke-linecap="round" stroke-linejoin="round"/>
<path d="M130.512 147.68L125.778 146.271" stroke="white" stroke-linecap="round" stroke-linejoin="round"/>
<path d="M130.01 147.931L123.54 147.183" stroke="white" stroke-linecap="round" stroke-linejoin="round"/>
<path d="M141.004 139.837C141.004 139.837 137.502 142.071 141.004 143.562" stroke="white" stroke-linecap="round" stroke-linejoin="round"/>
<path d="M131.091 140.749L130.553 142.901L129.112 144.342L130.908 145.957" stroke="white" stroke-linecap="round" stroke-linejoin="round"/>
<path d="M151.606 115.24C148.414 112.65 144.452 109.522 144.452 109.522C144.452 109.522 136.048 109.33 132.965 109.367L128.633 123.193C128.633 123.193 124.652 136.964 124.816 137.548C124.981 138.131 127.808 139.454 134.114 140.202C140.421 140.949 143.075 138.296 143.234 137.466C143.303 136.714 143.248 135.956 143.07 135.222L145.227 131.405L152.363 119.668C152.794 118.963 152.954 118.126 152.815 117.312C152.676 116.498 152.247 115.762 151.606 115.24Z" fill="#7400B8" stroke="#263238" stroke-linecap="round" stroke-linejoin="round"/>
<path d="M149.112 113.22C146.668 111.259 144.466 109.522 144.466 109.522C144.466 109.522 141.675 109.458 138.725 109.413C137.977 111.118 136.686 114.602 137.749 116.326C139.044 118.451 143.326 119.084 149.112 113.22Z" fill="#263238" stroke="#263238" stroke-linecap="round" stroke-linejoin="round"/>
<path d="M145.313 95.3041C145.313 95.3041 142.91 95.9698 141.912 97.4609C140.913 98.9521 138.013 107.671 138.095 108.405C138.177 109.139 141.912 108.405 141.912 108.405C141.912 108.405 139.34 113.799 139.34 114.711C139.34 115.623 140.503 116.125 141.994 115.792C143.485 115.459 148.578 106.704 148.578 106.704C148.578 106.704 150.088 108.455 151.041 107.853C152.135 107.165 151.789 105.778 150.959 105.778C150.129 105.778 153.28 102.377 152.204 100.138C151.127 97.8987 146.312 94.5608 145.313 95.3041Z" fill="white" stroke="#263238" stroke-linecap="round" stroke-linejoin="round"/>
<path d="M144.402 92.6546C144.402 92.6546 139.755 92.6546 139.504 94.8936C139.254 97.1325 141.666 98.1312 144.32 97.7162C146.974 97.3012 149.381 97.4654 149.714 97.8804C150.047 98.2953 146.477 99.1252 147.306 99.7044C147.789 100.051 148.373 100.227 148.966 100.206C148.966 100.206 147.804 100.534 147.886 101.364C147.968 102.194 148.693 105.86 149.254 105.86C149.814 105.86 150.941 105.787 150.941 105.787C151.991 105.259 152.946 104.558 153.763 103.713C155.008 102.386 155.337 99.563 153.763 97.9077C152.19 96.2524 150.941 94.6428 149.696 93.3158C148.451 91.9888 147.288 90.5798 144.798 90.2469C142.309 89.914 141 90.9081 144.402 92.6546Z" fill="#263238" stroke="#263238" stroke-linecap="round" stroke-linejoin="round"/>
<path d="M154.091 101.232C154.177 101.718 154.194 102.214 154.141 102.705" stroke="white" stroke-linecap="round" stroke-linejoin="round"/>
<path d="M145.564 95.272C145.564 95.272 140.471 95.769 142.372 96.7403C144.274 97.7116 147.242 95.8921 150.95 97.3605C151.575 97.5863 152.146 97.9409 152.626 98.4011C153.106 98.8614 153.484 99.4172 153.736 100.033" stroke="white" stroke-linecap="round" stroke-linejoin="round"/>
<path d="M148.656 99.1389C148.656 99.1389 152.136 100.84 152.596 103.311" stroke="white" stroke-linecap="round" stroke-linejoin="round"/>
<path d="M141.912 108.418C141.912 108.418 145.897 108.172 146.973 107.26" stroke="#263238" stroke-linecap="round" stroke-linejoin="round"/>
<path d="M140.667 105.099C140.667 105.099 143.572 105.929 144.402 104.187" stroke="#263238" stroke-linecap="round" stroke-linejoin="round"/>
<path d="M143.904 103.854L145.149 104.356" stroke="#263238" stroke-linecap="round" stroke-linejoin="round"/>
<path d="M141.579 101.282C141.579 101.282 139.007 101.615 139.007 102.03C139.007 102.445 140.667 103.608 140.667 103.608" fill="white"/>
<path d="M141.579 101.282C141.579 101.282 139.007 101.615 139.007 102.03C139.007 102.445 140.667 103.608 140.667 103.608" stroke="#263238" stroke-linecap="round" stroke-linejoin="round"/>
<path d="M141.907 100.484C141.788 100.844 141.547 101.086 141.364 101.027C141.182 100.968 141.136 100.63 141.259 100.27C141.383 99.9096 141.62 99.6679 141.802 99.7272C141.984 99.7865 142.03 100.128 141.907 100.484Z" fill="#263238"/>
<path d="M144.096 101.592C143.973 101.952 143.731 102.194 143.553 102.135C143.375 102.076 143.325 101.734 143.444 101.378C143.562 101.022 143.809 100.776 143.986 100.835C144.164 100.895 144.21 101.232 144.096 101.592Z" fill="#263238"/>
<path d="M144.21 99.2346C144.21 99.2346 145.469 99.3486 145.35 101.059L144.21 99.2346Z" fill="#263238" stroke="#263238" stroke-linecap="round" stroke-linejoin="round"/>
<path d="M143.07 98.4367C143.07 98.4367 142.381 97.5247 141.469 98.7787L143.07 98.4367Z" fill="#263238" stroke="#263238" stroke-linecap="round" stroke-linejoin="round"/>
<path d="M120.17 68.0854L108.159 52.969L96.1523 68.0854H100.849V90.8444H115.473V68.0854H120.17Z" fill="#263238" stroke="#263238" stroke-linecap="round" stroke-linejoin="round"/>
<path d="M120.17 67.1049L108.159 51.9885L96.1523 67.1049H100.849V89.8639H115.473V67.1049H120.17Z" fill="white" stroke="#263238" stroke-linecap="round" stroke-linejoin="round"/>
<path d="M131.583 87.2966H82.7412V136.139H131.583V87.2966Z" fill="white" stroke="#263238" stroke-linecap="round" stroke-linejoin="round"/>
<path d="M129.313 89.5674H85.0122V133.868H129.313V89.5674Z" fill="#263238" stroke="#263238" stroke-linecap="round" stroke-linejoin="round"/>
<path d="M119.039 104.483L108.706 115.281L100.662 113.029C100.266 112.918 99.8496 112.899 99.4446 112.971C99.0395 113.044 98.6561 113.207 98.3228 113.448L85.0122 123.12V133.886H129.313V111.086L122.974 104.479C122.719 104.215 122.413 104.005 122.075 103.862C121.736 103.719 121.373 103.646 121.006 103.646C120.638 103.646 120.275 103.721 119.937 103.865C119.599 104.008 119.294 104.219 119.039 104.483Z" fill="white" stroke="#263238" stroke-linecap="round" stroke-linejoin="round"/>
<path d="M106.609 103.608C107.782 100.752 106.417 97.4858 103.561 96.3132C100.704 95.1406 97.4384 96.5055 96.2658 99.3617C95.0932 102.218 96.458 105.484 99.3143 106.657C102.171 107.829 105.437 106.464 106.609 103.608Z" fill="white" stroke="#263238" stroke-linecap="round" stroke-linejoin="round"/>
<path d="M145.505 117.352L133.298 129.901L114.693 135.026C114.693 135.026 113.033 133.097 111.838 133.084C110.644 133.07 106.795 134.452 106.795 134.452C106.795 134.452 106.307 135.646 107.251 135.655C108.222 135.587 109.184 135.435 110.128 135.199L104.853 136.111C104.916 136.513 105.12 136.879 105.428 137.145C105.736 137.41 106.129 137.558 106.535 137.562H108.911L112.974 138.077L116.818 136.914C116.818 136.914 135.031 134.93 135.993 134.698C136.955 134.465 152.409 121.2 152.409 121.2C152.409 121.2 154.155 119.664 153.49 117.881C152.824 116.098 149.417 114.834 149.417 114.834" fill="white"/>
<path d="M145.505 117.352L133.298 129.901L114.693 135.026C114.693 135.026 113.033 133.097 111.838 133.084C110.644 133.07 106.795 134.452 106.795 134.452C106.795 134.452 106.307 135.646 107.251 135.655C108.222 135.587 109.184 135.435 110.128 135.199L104.853 136.111C104.916 136.513 105.12 136.879 105.428 137.145C105.736 137.41 106.129 137.558 106.535 137.562H108.911L112.974 138.077L116.818 136.914C116.818 136.914 135.031 134.93 135.993 134.698C136.955 134.465 152.409 121.2 152.409 121.2C152.409 121.2 154.155 119.664 153.49 117.881C152.824 116.098 149.417 114.834 149.417 114.834" stroke="#263238" stroke-linecap="round" stroke-linejoin="round"/>
<path d="M143.303 118.66L133.996 127.995L140.904 132.979L152.906 121.674C153.492 121.126 153.872 120.393 153.984 119.599C154.096 118.804 153.933 117.995 153.522 117.306L153.48 117.242C152.62 115.877 151.402 114.773 149.96 114.05" fill="#7400B8"/>
<path d="M143.303 118.66L133.996 127.995L140.904 132.979L152.906 121.674C153.492 121.126 153.872 120.393 153.984 119.599C154.096 118.804 153.933 117.995 153.522 117.306L153.48 117.242C152.62 115.877 151.402 114.773 149.96 114.05" stroke="#263238" stroke-linecap="round" stroke-linejoin="round"/>
<path d="M140.922 132.979L142.546 131.447L135.601 126.385L133.996 127.995L140.922 132.979Z" fill="#263238" stroke="#263238" stroke-linecap="round" stroke-linejoin="round"/>
<path d="M96.3804 135.218L98.136 137.115L99.8369 137.302L97.1966 135.04L96.3804 135.218Z" fill="white" stroke="#263238" stroke-linecap="round" stroke-linejoin="round"/>
<path d="M99.6816 135.218L101.437 137.115L103.134 137.302L100.493 135.04L99.6816 135.218Z" fill="white" stroke="#263238" stroke-linecap="round" stroke-linejoin="round"/>
<path d="M99.8366 137.302L97.853 134.757H99.0797L101.533 137.302L100.493 137.493L99.8366 137.302Z" fill="white" stroke="#263238" stroke-linecap="round" stroke-linejoin="round"/>
<path d="M95.687 135.418L96.5352 137.019L98.1357 137.114L96.3801 135.218L95.687 135.418Z" fill="white" stroke="#263238" stroke-linecap="round" stroke-linejoin="round"/>
</svg>
